<?xml version="1.0" encoding="iso-8859-1"?>
<!-- Generator: Adobe Illustrator 19.0.0, SVG Export Plug-In . SVG Version: 6.00 Build 0)  -->
<svg version="1.1" id="Layer_1" xmlns="http://www.w3.org/2000/svg" xmlns:xlink="http://www.w3.org/1999/xlink" x="0px" y="0px"
	 width="100pt" height="100pt"
	 viewBox="0 0 330 330" style="enable-background:new 0 0 330 330;" xml:space="preserve">
<path id="XMLID_229_" d="M253.858,234.26c-2.321-5.605-7.791-9.26-13.857-9.26h-60V15c0-8.284-6.717-15-15-15
	c-8.285,0-15,6.716-15,15v210H90c-6.067,0-11.537,3.655-13.859,9.26c-2.32,5.605-1.037,12.057,3.252,16.347l75,75
	C157.323,328.536,161.16,330,165,330c3.838,0,7.678-1.464,10.605-4.394l75-75C254.897,246.316,256.18,239.865,253.858,234.26z"/>
</svg>
