<?xml version="1.0" encoding="UTF-8"?>
<!DOCTYPE svg PUBLIC "-//W3C//DTD SVG 1.1//EN" "http://www.w3.org/Graphics/SVG/1.1/DTD/svg11.dtd">
<svg xmlns="http://www.w3.org/2000/svg" version="1.1" width="382px" height="379px" style="shape-rendering:geometricPrecision; text-rendering:geometricPrecision; image-rendering:optimizeQuality; fill-rule:evenodd; clip-rule:evenodd" xmlns:xlink="http://www.w3.org/1999/xlink">
<g><path style="opacity:0.961" fill="#ec9130" d="M 168.5,-0.5 C 182.5,-0.5 196.5,-0.5 210.5,-0.5C 284.836,10.9177 336.67,51.251 366,120.5C 388.188,185.334 379.522,245.668 340,301.5C 292.473,359.658 231.307,383.491 156.5,373C 79.8462,356.347 30.0129,310.514 7,235.5C -9.59849,159.635 10.5682,95.4685 67.5,43C 96.9463,18.6851 130.613,4.18511 168.5,-0.5 Z M 179.5,13.5 C 250.427,12.8667 304.261,42.5333 341,102.5C 370.48,158.333 370.813,214.333 342,270.5C 303.56,333.811 247.06,363.644 172.5,360C 112.356,352.471 67.1888,322.637 37,270.5C 8.18683,214.333 8.52016,158.333 38,102.5C 70.026,49.011 117.193,19.3443 179.5,13.5 Z"/></g>
<g><path style="opacity:0.964" fill="#ec9130" d="M 226.5,117.5 C 262.606,117.951 286.106,135.284 297,169.5C 302.964,207.077 288.797,233.91 254.5,250C 236.893,256.372 219.559,255.706 202.5,248C 197.787,240.472 199.62,235.306 208,232.5C 231.201,241.449 251.535,237.115 269,219.5C 285.275,197.721 285.608,175.721 270,153.5C 248.209,131.395 224.376,128.895 198.5,146C 182.084,160.752 176.417,178.919 181.5,200.5C 178.446,208.866 173.28,210.533 166,205.5C 157.685,173.112 167.185,147.279 194.5,128C 204.607,122.352 215.274,118.852 226.5,117.5 Z"/></g>
<g><path style="opacity:0.963" fill="#ec9130" d="M 140.5,120.5 C 151.473,119.901 162.14,121.401 172.5,125C 178.095,127.354 179.928,131.521 178,137.5C 176.471,140.516 173.971,141.849 170.5,141.5C 145.348,132.745 124.181,138.411 107,158.5C 95.539,176.593 94.539,195.259 104,214.5C 119.728,237.397 140.894,244.564 167.5,236C 192.485,223.533 202.818,203.367 198.5,175.5C 197.831,169.508 200.497,166.175 206.5,165.5C 210.085,165.628 212.585,167.295 214,170.5C 221.05,203.556 210.55,229.389 182.5,248C 149.26,263.545 120.093,258.045 95,231.5C 78.7846,208.722 76.1179,184.388 87,158.5C 98.4927,136.843 116.326,124.176 140.5,120.5 Z"/></g>
</svg>
